EMG
version=1
nRows=17
nColumns=17
inDegrees=no
endheader
time	EMG01_right_gast_med	EMG02_right_glut_max	EMG03_left_gast_med	EMG04_left_glut_max	EMG05_right_glut_med	EMG06_right_bic_fem	EMG07_right_rect_fem	EMG08_right_vast_lat	EMG09_right_vast_med	EMG10_right_tens_fasc_lat	EMG11_left_glut_med	EMG12_left_bic_fem	EMG13_left_rect_fem	EMG14_left_vast_lat	EMG15_left_vast_med	EMG16_left_tens_fasc_lat
      0.00000000	    -10.64361763	     16.61425781	    -17.19348907	      9.14197636	    487.51080322	     64.55832672	     31.87440681	     -6.19707155	     96.96385193	     -1.70305717	    -10.85529900	     -2.44521570	     21.27504921	      7.08740664	      2.87562823	    -64.72317505
      0.01000000	    -21.36108971	    -48.36793518	     -4.48689127	     16.12427330	   -196.59213257	    -34.67875290	    -40.31129456	    -94.92146301	    104.65027618	    -34.64233398	     -4.92736435	     -3.99067974	     -2.38423705	      1.08480406	      8.15757084	    -73.34574127
      0.02000000	    -15.87400246	    -35.03653717	     -3.52932644	     46.97158432	   -432.20773315	    -12.81340599	      5.26634455	     15.79223633	      2.40714216	      1.82714033	     -3.85946345	      1.12673044	      8.98572159	    -10.20937157	    -34.29977798	    -52.03575516
      0.03000000	     37.28676224	    -46.29867172	     -7.97764587	     52.73542786	   -178.15740967	   -166.05708313	    -12.34913063	      5.68528557	    -23.17669678	     18.40185547	     -5.90381813	     -5.33513832	      9.17263699	     -0.09779692	    -40.14983749	    -63.59600067
      0.04000000	     51.38099289	     -3.12563372	      1.68579125	     35.37003708	     92.02252197	   -154.94595337	    -12.95196533	     18.19040108	   -124.54897308	    -23.75028229	     -5.42510986	     -7.21219540	      8.01152134	    -10.06608200	    -26.39183617	    -63.60234070
      0.05000000	     21.40093231	     31.11207962	     -8.86870575	      2.06131363	    173.27479553	    -49.70318985	     12.34235859	     -2.55359888	    -87.64060974	    -73.66654968	     -0.30212402	     -6.11641121	     -9.19333935	     -4.92557096	     -2.56456041	   -101.16652679
      0.06000000	     -9.03371239	     57.59029770	      5.99913216	    -32.33526993	    -62.17616272	    -90.21773529	     18.53961372	      0.59157920	     -0.53421950	    -93.00953674	    -15.83582401	     -6.17453909	    -10.50296974	      9.86605644	      7.45572090	    -61.46524811
      0.07000000	    -23.37491035	     74.06491852	     -2.16425323	    -60.30666733	    -62.74299622	    -13.03878021	     -6.49469757	     -0.44737899	     59.09527206	   -112.82008362	     -8.37135506	     -7.57924318	     -2.05580711	      7.58215714	     -1.72656453	    -67.15190125
      0.08000000	    -52.85380936	     53.20279312	     -1.61172020	    -68.31346893	     82.91629028	      0.90189815	     -9.78578854	     13.53239346	    137.71510315	    -83.67124176	     -0.97733116	     -6.46203184	     -1.05315626	     19.31474495	     21.39578247	    -29.05814552
      0.09000000	    -25.33342934	    -25.50503922	    -11.35631561	    -27.40275383	    199.21862793	     -5.09907198	    -20.13031387	     20.57201576	    133.82687378	    -60.22410965	     14.60432911	     -6.73853874	     -4.64958382	     15.43312645	     71.99382782	     -3.04309511
      0.10000000	      1.02043200	    -60.66051102	    -12.32367420	    -17.75481224	    153.40983582	    -21.54850769	     -9.12387943	     19.97639847	     76.26399994	     -2.90225315	      2.59145737	     -9.22976112	     18.59777260	     16.89416313	    115.35205841	     -9.82858944
      0.11000000	      9.25429153	    -77.19036102	    -16.52592468	    -56.85509109	    199.29803467	    -45.03094101	      0.70908594	      1.06079149	    -64.19438171	     32.42952347	      0.73491287	     -5.44494724	    -31.69513702	     20.44114113	    151.23295593	      2.34623337
      0.12000000	    -49.61492538	    -53.07894135	     11.84088421	    -40.36270142	    212.71461487	      7.05721712	    -15.69449997	    -22.80792999	    -58.93077087	     19.90701675	      3.02490950	     -7.61449909	      8.26913738	     11.96798611	    117.33464050	     30.13226700
      0.13000000	     13.98594666	     -6.23031044	      8.86888695	     69.70352936	    111.27198792	    -16.16692734	     17.23199463	    -37.66633606	   -100.19508362	     -0.60971117	      3.05079436	    -10.97563267	    -44.52344513	    -23.67338562	     39.36982727	    -65.53681946
      0.14000000	    -10.82143593	     -7.45250320	     12.40992451	    235.59150696	    -88.94046783	    -17.93452454	     11.83616638	    -15.65032005	   -193.51766968	     60.00678253	     -5.68107748	     -4.71638680	      0.67616653	    -46.17844772	    -38.54322815	    -68.91816711
      0.15000000	    -15.25281715	    -26.88726044	     10.38521004	    574.96350098	     26.96388626	     -9.12547016	     10.80582428	    -17.83598709	   -201.83808899	    111.95384216	      1.92784071	    -14.41191483	     -1.33733034	    -28.93843651	    -62.82110977	    -85.49414825
      0.16000000	    -16.11571312	    -50.90171814	     10.52818108	    724.90307617	     56.59879303	    -21.94109344	     11.66490459	    -17.88716125	    -76.61626434	    103.37942505	     -9.97406483	    -13.76210403	      3.75821304	     -4.37372684	    -79.25322723	   -106.49164581
